<svg xmlns="http://www.w3.org/2000/svg" width="400" height="250" viewBox="0 0 400 250" fill="none">
  <defs>
    <linearGradient id="area" x1="80" y1="70" x2="300" y2="190" gradientUnits="userSpaceOnUse">
      <stop stop-color="#8B5CF6" stop-opacity="0.38"/>
      <stop offset="1" stop-color="#8B5CF6" stop-opacity="0.04"/>
    </linearGradient>
    <filter id="shadow" x="0" y="0" width="400" height="250" filterUnits="userSpaceOnUse" color-interpolation-filters="sRGB">
      <feDropShadow dx="0" dy="18" stdDeviation="18" flood-color="#111827" flood-opacity="0.12"/>
    </filter>
  </defs>
  <g filter="url(#shadow)">
    <rect x="24" y="20" width="352" height="196" rx="28" fill="#FFFFFF" fill-opacity="0.74"/>
    <rect x="24.8" y="20.8" width="350.4" height="194.4" rx="27.2" stroke="#FFFFFF" stroke-opacity="0.92" stroke-width="1.6"/>
  </g>
  <text x="48" y="56" font-family="Inter, Arial, sans-serif" font-size="15" font-weight="700" fill="#111827">Yearly Spent Hours</text>
  <text x="48" y="78" font-family="Inter, Arial, sans-serif" font-size="13" font-weight="500" fill="#6B7280">Financial activity overview</text>
  <path d="M72 178C98 156 115 165 141 145C168 124 190 132 216 103C243 72 266 83 294 94C319 104 332 82 348 64V178H72Z" fill="url(#area)"/>
  <path d="M72 178C98 156 115 165 141 145C168 124 190 132 216 103C243 72 266 83 294 94C319 104 332 82 348 64" stroke="#8B5CF6" stroke-width="4" stroke-linecap="round"/>
  <circle cx="216" cy="103" r="6" fill="#8B5CF6"/>
  <rect x="198" y="120" width="78" height="32" rx="16" fill="#111827"/>
  <text x="216" y="141" font-family="Inter, Arial, sans-serif" font-size="13" font-weight="700" fill="white">8.4 hrs</text>
  <path d="M74 178H350" stroke="#E5E7EB" stroke-width="2"/>
  <path d="M72 94V180" stroke="#E5E7EB" stroke-width="2"/>
</svg>
